<svg xmlns="http://www.w3.org/2000/svg" version="1.1" xmlns:xlink="http://www.w3.org/1999/xlink" xmlns:svgjs="http://svgjs.dev/svgjs" width="1500" height="1500" viewBox="0 0 1500 1500"><rect width="1500" height="1500" fill="#000000"></rect><g transform="matrix(0.6666666666666666,0,0,0.6666666666666666,250.1489496011203,568.7640758620689)"><svg viewBox="0 0 160 58" data-background-color="#004051" preserveAspectRatio="xMidYMid meet" height="543" width="1500" xmlns="http://www.w3.org/2000/svg" xmlns:xlink="http://www.w3.org/1999/xlink"><g id="tight-bounds" transform="matrix(1,0,0,1,-0.02383193617924917,0.037800000000004275)"><svg viewBox="0 0 160.04766387235853 57.92439999999999" height="57.92439999999999" width="160.04766387235853"><g><svg viewBox="0 0 160.04766387235853 57.92439999999999" height="57.92439999999999" width="160.04766387235853"><g><svg viewBox="0 0 160.04766387235853 57.92439999999999" height="57.92439999999999" width="160.04766387235853"><g id="textblocktransform"><svg viewBox="0 0 160.04766387235853 57.92439999999999" height="57.92439999999999" width="160.04766387235853" id="textblock"><g><svg viewBox="0 0 160.04766387235853 57.92439999999999" height="57.92439999999999" width="160.04766387235853"><g><svg><g></g><g></g></svg></g><g><svg><g><svg></svg></g><g></g></svg></g><g id="text-0"><svg viewBox="0 0 160.04766387235853 57.92439999999999" height="57.92439999999999" width="160.04766387235853"><g transform="matrix(1,0,0,1,0,0)"><svg width="87.0484" viewBox="3.1 -35.15 53.8 35.8" height="57.92439999999999" data-palette-color="url(#d5a7ae3f-28de-43e1-a938-e705b5e92eb8)"><g class="wordmark-text-0" data-fill-palette-color="primary"></g></svg></g><g><svg xmlns="http://www.w3.org/2000/svg" xmlns:xlink="http://www.w3.org/1999/xlink" version="1.1" x="100.724" y="0" viewBox="11.017823632605122 11.461749422187646 37.96369815853941 37.06825057781236" style="enable-background:new 0 0 60 60;" xml:space="preserve" height="57.92439999999999" width="59.32366387235852" class="icon-dxe-0" data-fill-palette-color="accent" id="dxe-0"></svg></g></svg></g></svg></g></svg></g></svg></g><g></g></svg></g><defs></defs><mask id="3644bec1-5f63-4654-9370-9e715f586acf"><g id="SvgjsG2014"><svg viewBox="0 0 160.04766387235853 57.92439999999999" height="57.92439999999999" width="160.04766387235853"><g><svg viewBox="0 0 160.04766387235853 57.92439999999999" height="57.92439999999999" width="160.04766387235853"><g><svg viewBox="0 0 160.04766387235853 57.92439999999999" height="57.92439999999999" width="160.04766387235853"><g id="SvgjsG2013"><svg viewBox="0 0 160.04766387235853 57.92439999999999" height="57.92439999999999" width="160.04766387235853" id="SvgjsSvg2012"><g><svg viewBox="0 0 160.04766387235853 57.92439999999999" height="57.92439999999999" width="160.04766387235853"><g><svg><g></g><g></g></svg></g><g><svg><g><svg></svg></g><g></g></svg></g><g id="SvgjsG2011"><svg viewBox="0 0 160.04766387235853 57.92439999999999" height="57.92439999999999" width="160.04766387235853"><g transform="matrix(1,0,0,1,0,0)"><svg width="87.0484" viewBox="3.1 -35.15 53.8 35.8" height="57.92439999999999" data-palette-color="url(#d5a7ae3f-28de-43e1-a938-e705b5e92eb8)"><g class="wordmark-text-0" data-fill-palette-color="primary"><path d="M17.5-35.15L17.5-35.15Q19.25-35.15 20.9-35.05 22.55-34.95 24.1-34.73 25.65-34.5 27.1-34.1L27.1-34.1 26.65-30.8Q25.1-30.95 23.53-31.05 21.95-31.15 20.5-31.18 19.05-31.2 17.75-31.2L17.75-31.2Q14.95-31.2 13.03-30.68 11.1-30.15 9.95-28.65 8.8-27.15 8.28-24.35 7.75-21.55 7.75-17.05L7.75-17.05Q7.75-11.95 8.45-8.93 9.15-5.9 10.8-4.55 12.45-3.2 15.2-3.2L15.2-3.2Q17.1-3.2 18.68-3.75 20.25-4.3 21.63-5.18 23-6.05 24.3-7L24.3-7 24.9-4.3Q24-3.25 22.43-2.1 20.85-0.95 18.75-0.15 16.65 0.65 14 0.65L14 0.65Q10.15 0.65 7.73-1.28 5.3-3.2 4.2-7.18 3.1-11.15 3.1-17.35L3.1-17.35Q3.1-24.2 4.48-28.08 5.85-31.95 9.03-33.55 12.2-35.15 17.5-35.15ZM23.7-19.95L28-19.95 28 0 24.8 0 24.1-5.1 23.7-6.1 23.7-19.95ZM45.35-35.1L45.35-35.1Q47.8-35.05 50.4-34.85 53-34.65 55.6-34.1L55.6-34.1 55.3-30.9Q53.15-31 50.55-31.08 47.95-31.15 45.55-31.15L45.55-31.15Q43.7-31.15 42.37-31.03 41.05-30.9 40.2-30.43 39.35-29.95 38.97-28.88 38.6-27.8 38.6-25.9L38.6-25.9Q38.6-23.05 39.62-21.93 40.65-20.8 42.95-20.25L42.95-20.25 49.95-18.5Q53.95-17.55 55.42-15.18 56.9-12.8 56.9-8.8L56.9-8.8Q56.9-5.8 56.22-3.95 55.55-2.1 54.15-1.13 52.75-0.15 50.55 0.23 48.35 0.6 45.35 0.6L45.35 0.6Q43.65 0.6 40.92 0.45 38.2 0.3 34.65-0.35L34.65-0.35 34.95-3.6Q37.9-3.5 39.7-3.43 41.5-3.35 42.8-3.35 44.1-3.35 45.5-3.35L45.5-3.35Q48.15-3.35 49.67-3.75 51.2-4.15 51.82-5.35 52.45-6.55 52.45-8.9L52.45-8.9Q52.45-10.9 52-12 51.55-13.1 50.57-13.68 49.6-14.25 48.1-14.6L48.1-14.6 40.95-16.4Q37.2-17.35 35.67-19.7 34.15-22.05 34.15-26L34.15-26Q34.15-29 34.82-30.83 35.5-32.65 36.87-33.58 38.25-34.5 40.35-34.8 42.45-35.1 45.35-35.1Z" fill="white"></path></g></svg></g><g><svg xmlns="http://www.w3.org/2000/svg" xmlns:xlink="http://www.w3.org/1999/xlink" version="1.1" x="100.724" y="0" viewBox="11.017823632605122 11.461749422187646 37.96369815853941 37.06825057781236" style="enable-background:new 0 0 60 60;" xml:space="preserve" height="57.92439999999999" width="59.32366387235852" class="icon-dxe-0" data-fill-palette-color="accent" id="SvgjsSvg2010"><path d="M48.85 34.1L35.82 11.92A0.945 0.945 0 0 0 34.2 11.92L30 19.08 25.79 11.93A0.945 0.945 0 0 0 24.17 11.93L11.15 34.1C10.93 34.47 10.99 34.93 11.29 35.23L24.32 48.26C24.5 48.44 24.74 48.53 24.98 48.53S25.46 48.44 25.64 48.26L30 43.91 34.35 48.26C34.53 48.44 34.77 48.53 35.01 48.53S35.49 48.44 35.67 48.26L48.7 35.23C49.01 34.93 49.07 34.46 48.85 34.1M24.99 46.28L13.13 34.42 24.99 14.24 28.92 20.92 21.17 34.1C20.95 34.47 21.01 34.93 21.31 35.23L28.67 42.59zM30 22.77L36.85 34.42 30 41.27 23.15 34.42zM35.01 46.28L31.32 42.59 38.68 35.23C38.98 34.93 39.04 34.46 38.82 34.1L31.08 20.93 35.01 14.25 46.87 34.43z" fill="black"></path></svg></g></svg></g></svg></g></svg></g></svg></g><g></g></svg></g><defs><mask></mask></defs></svg><rect width="160.04766387235853" height="57.92439999999999" fill="black" stroke="none" visibility="hidden"></rect></g></mask><linearGradient x1="0" x2="1" y1="0.5" y2="0.5" id="d5a7ae3f-28de-43e1-a938-e705b5e92eb8"><stop stop-color="#ffa62e" offset="0"></stop><stop stop-color="#f71b3d" offset="1"></stop></linearGradient><rect width="160.04766387235853" height="57.92439999999999" fill="#ffffff" mask="url(#3644bec1-5f63-4654-9370-9e715f586acf)" data-fill-palette-color="primary"></rect><mask id="93dbceed-8da5-41c1-b700-9144538e2d82"><g id="SvgjsG2024"><svg viewBox="0 0 160.04766387235853 57.92439999999999" height="57.92439999999999" width="160.04766387235853"><g><svg viewBox="0 0 160.04766387235853 57.92439999999999" height="57.92439999999999" width="160.04766387235853"><g><svg viewBox="0 0 160.04766387235853 57.92439999999999" height="57.92439999999999" width="160.04766387235853"><g id="SvgjsG2023"><svg viewBox="0 0 160.04766387235853 57.92439999999999" height="57.92439999999999" width="160.04766387235853" id="SvgjsSvg2022"><g><svg viewBox="0 0 160.04766387235853 57.92439999999999" height="57.92439999999999" width="160.04766387235853"><g><svg><g></g><g></g></svg></g><g><svg><g><svg></svg></g><g></g></svg></g><g id="SvgjsG2021"><svg viewBox="0 0 160.04766387235853 57.92439999999999" height="57.92439999999999" width="160.04766387235853"><g transform="matrix(1,0,0,1,0,0)"><svg width="87.0484" viewBox="3.1 -35.15 53.8 35.8" height="57.92439999999999" data-palette-color="url(#d5a7ae3f-28de-43e1-a938-e705b5e92eb8)"><g class="wordmark-text-0" data-fill-palette-color="primary"></g></svg></g><g><svg xmlns="http://www.w3.org/2000/svg" xmlns:xlink="http://www.w3.org/1999/xlink" version="1.1" x="100.724" y="0" viewBox="11.017823632605122 11.461749422187646 37.96369815853941 37.06825057781236" style="enable-background:new 0 0 60 60;" xml:space="preserve" height="57.92439999999999" width="59.32366387235852" class="icon-dxe-0" data-fill-palette-color="accent" id="SvgjsSvg2020"><path d="M48.85 34.1L35.82 11.92A0.945 0.945 0 0 0 34.2 11.92L30 19.08 25.79 11.93A0.945 0.945 0 0 0 24.17 11.93L11.15 34.1C10.93 34.47 10.99 34.93 11.29 35.23L24.32 48.26C24.5 48.44 24.74 48.53 24.98 48.53S25.46 48.44 25.64 48.26L30 43.91 34.35 48.26C34.53 48.44 34.77 48.53 35.01 48.53S35.49 48.44 35.67 48.26L48.7 35.23C49.01 34.93 49.07 34.46 48.85 34.1M24.99 46.28L13.13 34.42 24.99 14.24 28.92 20.92 21.17 34.1C20.95 34.47 21.01 34.93 21.31 35.23L28.67 42.59zM30 22.77L36.85 34.42 30 41.27 23.15 34.42zM35.01 46.28L31.32 42.59 38.68 35.23C38.98 34.93 39.04 34.46 38.82 34.1L31.08 20.93 35.01 14.25 46.87 34.43z" fill="white"></path></svg></g></svg></g></svg></g></svg></g></svg></g><g></g></svg></g><defs><mask></mask></defs><mask><g id="SvgjsG2019"><svg viewBox="0 0 160.04766387235853 57.92439999999999" height="57.92439999999999" width="160.04766387235853"><g><svg viewBox="0 0 160.04766387235853 57.92439999999999" height="57.92439999999999" width="160.04766387235853"><g><svg viewBox="0 0 160.04766387235853 57.92439999999999" height="57.92439999999999" width="160.04766387235853"><g id="SvgjsG2018"><svg viewBox="0 0 160.04766387235853 57.92439999999999" height="57.92439999999999" width="160.04766387235853" id="SvgjsSvg2017"><g><svg viewBox="0 0 160.04766387235853 57.92439999999999" height="57.92439999999999" width="160.04766387235853"><g><svg><g></g><g></g></svg></g><g><svg><g><svg></svg></g><g></g></svg></g><g id="SvgjsG2016"><svg viewBox="0 0 160.04766387235853 57.92439999999999" height="57.92439999999999" width="160.04766387235853"><g transform="matrix(1,0,0,1,0,0)"><svg width="87.0484" viewBox="3.1 -35.15 53.8 35.8" height="57.92439999999999" data-palette-color="url(#d5a7ae3f-28de-43e1-a938-e705b5e92eb8)"><g class="wordmark-text-0" data-fill-palette-color="primary"><path d="M17.5-35.15L17.5-35.15Q19.25-35.15 20.9-35.05 22.55-34.95 24.1-34.73 25.65-34.5 27.1-34.1L27.1-34.1 26.65-30.8Q25.1-30.95 23.53-31.05 21.95-31.15 20.5-31.18 19.05-31.2 17.75-31.2L17.75-31.2Q14.95-31.2 13.03-30.68 11.1-30.15 9.95-28.65 8.8-27.15 8.28-24.35 7.75-21.55 7.75-17.05L7.75-17.05Q7.75-11.95 8.45-8.93 9.15-5.9 10.8-4.55 12.45-3.2 15.2-3.2L15.2-3.2Q17.1-3.2 18.68-3.75 20.25-4.3 21.63-5.18 23-6.05 24.3-7L24.3-7 24.9-4.3Q24-3.25 22.43-2.1 20.85-0.95 18.75-0.15 16.65 0.65 14 0.65L14 0.65Q10.15 0.65 7.73-1.28 5.3-3.2 4.2-7.18 3.1-11.15 3.1-17.35L3.1-17.35Q3.1-24.2 4.48-28.08 5.85-31.95 9.03-33.55 12.2-35.15 17.5-35.15ZM23.7-19.95L28-19.95 28 0 24.8 0 24.1-5.1 23.7-6.1 23.7-19.95ZM45.35-35.1L45.35-35.1Q47.8-35.05 50.4-34.85 53-34.65 55.6-34.1L55.6-34.1 55.3-30.9Q53.15-31 50.55-31.08 47.95-31.15 45.55-31.15L45.55-31.15Q43.7-31.15 42.37-31.03 41.05-30.9 40.2-30.43 39.35-29.95 38.97-28.88 38.6-27.8 38.6-25.9L38.6-25.9Q38.6-23.05 39.62-21.93 40.65-20.8 42.95-20.25L42.95-20.25 49.95-18.5Q53.95-17.55 55.42-15.18 56.9-12.8 56.9-8.8L56.9-8.8Q56.9-5.8 56.22-3.95 55.55-2.1 54.15-1.13 52.75-0.15 50.55 0.23 48.35 0.6 45.35 0.6L45.35 0.6Q43.65 0.6 40.92 0.45 38.2 0.3 34.65-0.35L34.65-0.35 34.95-3.6Q37.9-3.5 39.7-3.43 41.5-3.35 42.8-3.35 44.1-3.35 45.5-3.35L45.5-3.35Q48.15-3.35 49.67-3.75 51.2-4.15 51.82-5.35 52.45-6.55 52.45-8.9L52.45-8.9Q52.45-10.9 52-12 51.55-13.1 50.57-13.68 49.6-14.25 48.1-14.6L48.1-14.6 40.95-16.4Q37.2-17.35 35.67-19.7 34.15-22.05 34.15-26L34.15-26Q34.15-29 34.82-30.83 35.5-32.65 36.87-33.58 38.25-34.5 40.35-34.8 42.45-35.1 45.35-35.1Z" fill="black"></path></g></svg></g><g><svg xmlns="http://www.w3.org/2000/svg" xmlns:xlink="http://www.w3.org/1999/xlink" version="1.1" x="100.724" y="0" viewBox="11.017823632605122 11.461749422187646 37.96369815853941 37.06825057781236" style="enable-background:new 0 0 60 60;" xml:space="preserve" height="57.92439999999999" width="59.32366387235852" class="icon-dxe-0" data-fill-palette-color="accent" id="SvgjsSvg2015"><path d="M48.85 34.1L35.82 11.92A0.945 0.945 0 0 0 34.2 11.92L30 19.08 25.79 11.93A0.945 0.945 0 0 0 24.17 11.93L11.15 34.1C10.93 34.47 10.99 34.93 11.29 35.23L24.32 48.26C24.5 48.44 24.74 48.53 24.98 48.53S25.46 48.44 25.64 48.26L30 43.91 34.35 48.26C34.53 48.44 34.77 48.53 35.01 48.53S35.49 48.44 35.67 48.26L48.7 35.23C49.01 34.93 49.07 34.46 48.85 34.1M24.99 46.28L13.13 34.42 24.99 14.24 28.92 20.92 21.17 34.1C20.95 34.47 21.01 34.93 21.31 35.23L28.67 42.59zM30 22.77L36.85 34.42 30 41.27 23.15 34.42zM35.01 46.28L31.32 42.59 38.68 35.23C38.98 34.93 39.04 34.46 38.82 34.1L31.08 20.93 35.01 14.25 46.87 34.43z" fill="black"></path></svg></g></svg></g></svg></g></svg></g></svg></g><g></g></svg></g><defs><mask></mask></defs></svg><rect width="160.04766387235853" height="57.92439999999999" fill="black" stroke="none" visibility="hidden"></rect></g></mask></svg><rect width="160.04766387235853" height="57.92439999999999" fill="black" stroke="none" visibility="hidden"></rect></g></mask><linearGradient x1="0" x2="1" y1="0.5" y2="0.5" id="b239526e-8c4c-43ff-8cd7-460fc1a2e159"><stop stop-color="#ffa62e" offset="0"></stop><stop stop-color="#f71b3d" offset="1"></stop></linearGradient><rect width="160.04766387235853" height="57.92439999999999" fill="#ffffff" mask="url(#93dbceed-8da5-41c1-b700-9144538e2d82)" data-fill-palette-color="accent"></rect></svg><rect width="160.04766387235853" height="57.92439999999999" fill="none" stroke="none" visibility="hidden"></rect></g></svg></g></svg>